# This file uses centimeters as units for non-parametric coordinates.

mtllib Mine.mtl
g default
v -0.831976 -0.680823 -1.441025
v -0.831976 -0.680823 1.441025
v 1.663952 -0.680823 0.000000
v -0.000000 1.975000 0.000000
v -0.375000 -0.275000 -0.000000
v -0.375000 -0.275000 -0.000000
v 0.187500 -0.275000 0.324760
v 0.187500 -0.275000 0.324760
v 0.187500 -0.275000 -0.324760
v 0.187500 -0.275000 -0.324760
v -0.187500 0.350000 -0.324760
v -0.187500 0.350000 -0.324760
v -0.187500 0.350000 0.324760
v -0.187500 0.350000 0.324760
v 0.375000 0.350000 0.000000
v 0.375000 0.350000 0.000000
v 0.264503 -0.728115 -0.458133
v -0.264503 -0.728115 -0.458133
v -0.529007 -0.728115 -0.000000
v -0.264503 -0.728115 0.458133
v 0.264503 -0.728115 0.458133
v 0.529007 -0.728115 0.000000
v 0.427976 -0.278115 -0.741275
v -0.427975 -0.278115 -0.741275
v -0.855951 -0.278115 -0.000000
v -0.427976 -0.278115 0.741275
v 0.427975 -0.278115 0.741275
v 0.855951 -0.278115 0.000000
v 0.427976 0.278115 -0.741275
v -0.427975 0.278115 -0.741275
v -0.855951 0.278115 -0.000000
v -0.427976 0.278115 0.741275
v 0.427975 0.278115 0.741275
v 0.855951 0.278115 0.000000
v 0.264503 0.728115 -0.458133
v -0.264503 0.728115 -0.458133
v -0.529007 0.728115 -0.000000
v -0.264503 0.728115 0.458133
v 0.264503 0.728115 0.458133
v 0.529007 0.728115 0.000000
v 0.000000 -0.900000 0.000000
v 0.000000 0.900000 0.000000
vt 0.375000 0.033494
vt 0.375000 0.466506
vt 0.750000 0.250000
vt 0.250000 0.500000
vt 0.416667 0.500000
vt 0.583333 0.500000
vt 0.750000 0.500000
vt 0.500000 1.000000
vt 0.305556 0.500000
vt 0.375000 0.177831
vt 0.361111 0.500000
vt 0.375000 0.322169
vt 0.472222 0.500000
vt 0.500000 0.394338
vt 0.527778 0.500000
vt 0.625000 0.322169
vt 0.638889 0.500000
vt 0.625000 0.177831
vt 0.694445 0.500000
vt 0.500000 0.105662
vt 0.666667 0.666667
vt 0.333333 0.666667
vt 0.583333 0.833333
vt 0.416667 0.833333
vt 0.444444 0.666667
vt 0.472222 0.833333
vt 0.555556 0.666667
vt 0.527778 0.833333
vt 0.000000 0.200000
vt 0.166667 0.200000
vt 0.166667 0.400000
vt 0.000000 0.400000
vt 0.333333 0.200000
vt 0.333333 0.400000
vt 0.500000 0.200000
vt 0.500000 0.400000
vt 0.666667 0.200000
vt 0.666667 0.400000
vt 0.833333 0.200000
vt 0.833333 0.400000
vt 1.000000 0.200000
vt 1.000000 0.400000
vt 0.166667 0.600000
vt 0.000000 0.600000
vt 0.333333 0.600000
vt 0.500000 0.600000
vt 0.666667 0.600000
vt 0.833333 0.600000
vt 1.000000 0.600000
vt 0.166667 0.800000
vt 0.000000 0.800000
vt 0.333333 0.800000
vt 0.500000 0.800000
vt 0.666667 0.800000
vt 0.833333 0.800000
vt 1.000000 0.800000
vt 0.083333 0.000000
vt 0.250000 0.000000
vt 0.416667 0.000000
vt 0.583333 0.000000
vt 0.750000 0.000000
vt 0.916667 0.000000
vt 0.083333 1.000000
vt 0.250000 1.000000
vt 0.416667 1.000000
vt 0.583333 1.000000
vt 0.750000 1.000000
vt 0.916667 1.000000
vn 0.132517 -0.964239 0.229526
vn 0.103968 -0.978142 0.180079
vn 0.103968 -0.978142 0.180079
vn -0.910759 0.369266 0.184826
vn -0.922857 0.354763 0.149930
vn -0.926400 0.350033 0.138782
vn 0.615443 0.369266 0.696328
vn 0.591272 0.354763 0.724252
vn 0.583389 0.350033 0.732895
vn 0.583389 0.350033 -0.732895
vn 0.615443 0.369266 -0.696328
vn 0.615443 0.369266 -0.696328
vn 0.132517 -0.964239 -0.229526
vn 0.132517 -0.964239 -0.229526
vn 0.132517 -0.964239 -0.229526
vn -0.926400 0.350033 -0.138782
vn -0.910759 0.369266 -0.184826
vn -0.910759 0.369266 -0.184825
vn 0.295316 0.369266 -0.881153
vn 0.331585 0.354763 -0.874182
vn 0.343011 0.350033 -0.871677
vn -0.207937 -0.978142 -0.000000
vn -0.265034 -0.964239 0.000000
vn -0.265034 -0.964239 0.000000
vn 0.343011 0.350033 0.871677
vn 0.295316 0.369266 0.881153
vn 0.295316 0.369266 0.881153
vn -0.993409 0.114624 -0.000000
vn -0.993409 0.114624 -0.000000
vn -0.993409 0.114624 -0.000000
vn 0.496705 0.114624 -0.860317
vn 0.496705 0.114624 -0.860317
vn 0.496705 0.114624 -0.860317
vn 0.496704 0.114624 0.860318
vn 0.496704 0.114624 0.860317
vn 0.496704 0.114624 0.860317
vn 0.000000 -0.532556 -0.846395
vn 0.000000 -0.532555 -0.846395
vn 0.000000 -0.532556 -0.846395
vn 0.000000 -0.532555 -0.846395
vn -0.733000 -0.532556 -0.423198
vn -0.733000 -0.532556 -0.423198
vn -0.733000 -0.532556 -0.423198
vn -0.733000 -0.532556 -0.423198
vn -0.733000 -0.532556 0.423197
vn -0.733000 -0.532556 0.423198
vn -0.733000 -0.532556 0.423197
vn -0.733000 -0.532556 0.423197
vn 0.000000 -0.532556 0.846395
vn 0.000000 -0.532556 0.846395
vn 0.000000 -0.532556 0.846395
vn 0.000000 -0.532555 0.846395
vn 0.733000 -0.532555 0.423198
vn 0.733000 -0.532555 0.423198
vn 0.733000 -0.532555 0.423198
vn 0.733000 -0.532555 0.423198
vn 0.733000 -0.532555 -0.423197
vn 0.733000 -0.532556 -0.423198
vn 0.733000 -0.532556 -0.423197
vn 0.733000 -0.532556 -0.423198
vn 0.000000 0.000000 -1.000000
vn 0.000000 0.000000 -1.000000
vn 0.000000 0.000000 -1.000000
vn 0.000000 0.000000 -1.000000
vn -0.866025 0.000000 -0.500000
vn -0.866025 0.000000 -0.500000
vn -0.866025 0.000000 -0.500000
vn -0.866025 0.000000 -0.500000
vn -0.866026 0.000000 0.500000
vn -0.866026 0.000000 0.500000
vn -0.866026 0.000000 0.500000
vn -0.866026 0.000000 0.500000
vn 0.000000 0.000000 1.000000
vn 0.000000 0.000000 1.000000
vn 0.000000 0.000000 1.000000
vn 0.000000 0.000000 1.000000
vn 0.866025 0.000000 0.500000
vn 0.866025 0.000000 0.500000
vn 0.866025 0.000000 0.500000
vn 0.866025 0.000000 0.500000
vn 0.866026 0.000000 -0.500000
vn 0.866026 0.000000 -0.500000
vn 0.866026 0.000000 -0.500000
vn 0.866026 0.000000 -0.500000
vn 0.000000 0.532555 -0.846395
vn 0.000000 0.532556 -0.846395
vn 0.000000 0.532555 -0.846395
vn 0.000000 0.532555 -0.846395
vn -0.733000 0.532556 -0.423198
vn -0.733000 0.532556 -0.423198
vn -0.733000 0.532556 -0.423198
vn -0.733000 0.532555 -0.423198
vn -0.733000 0.532556 0.423197
vn -0.733000 0.532556 0.423198
vn -0.733000 0.532556 0.423197
vn -0.733000 0.532555 0.423197
vn 0.000000 0.532555 0.846395
vn 0.000000 0.532556 0.846395
vn 0.000000 0.532555 0.846395
vn 0.000000 0.532556 0.846395
vn 0.733000 0.532555 0.423198
vn 0.733000 0.532555 0.423198
vn 0.733000 0.532555 0.423198
vn 0.733000 0.532556 0.423198
vn 0.733000 0.532555 -0.423198
vn 0.733000 0.532556 -0.423197
vn 0.733000 0.532556 -0.423197
vn 0.733000 0.532556 -0.423197
vn 0.000000 -0.936272 -0.351275
vn 0.000000 -0.936272 -0.351275
vn 0.000000 -0.936272 -0.351275
vn -0.304213 -0.936272 -0.175638
vn -0.304213 -0.936272 -0.175638
vn -0.304213 -0.936272 -0.175638
vn -0.304213 -0.936272 0.175638
vn -0.304213 -0.936272 0.175638
vn -0.304213 -0.936272 0.175638
vn 0.000000 -0.936272 0.351275
vn 0.000000 -0.936272 0.351275
vn 0.000000 -0.936272 0.351275
vn 0.304213 -0.936272 0.175638
vn 0.304213 -0.936272 0.175638
vn 0.304213 -0.936272 0.175638
vn 0.304213 -0.936272 -0.175638
vn 0.304213 -0.936272 -0.175638
vn 0.304213 -0.936272 -0.175638
vn 0.000000 0.936272 -0.351275
vn 0.000000 0.936272 -0.351275
vn 0.000000 0.936272 -0.351275
vn -0.304213 0.936272 -0.175638
vn -0.304213 0.936272 -0.175638
vn -0.304213 0.936272 -0.175638
vn -0.304213 0.936272 0.175637
vn -0.304213 0.936272 0.175637
vn -0.304213 0.936272 0.175637
vn 0.000000 0.936272 0.351275
vn 0.000000 0.936272 0.351275
vn 0.000000 0.936272 0.351275
vn 0.304213 0.936272 0.175638
vn 0.304213 0.936272 0.175638
vn 0.304213 0.936272 0.175638
vn 0.304213 0.936272 -0.175637
vn 0.304213 0.936272 -0.175637
vn 0.304213 0.936272 -0.175637
s 1
g MINE
usemtl initialShadingGroup
f 1/1/1 10/20/2 5/10/3
s 2
f 1/4/4 5/9/5 11/22/6
s 3
f 2/5/7 7/13/8 13/25/9
s 4
f 11/21/10 10/19/11 1/7/12
s 1
f 6/12/13 7/14/14 2/2/15
s 2
f 13/25/16 6/11/17 2/5/18
s 4
f 3/6/19 9/17/20 15/27/21
s 1
f 8/16/22 9/18/23 3/3/24
s 3
f 15/27/25 8/15/26 3/6/27
s 2
f 12/24/28 14/26/29 4/8/30
s 1
f 6/12/13 5/10/3 7/14/14
f 7/14/14 5/10/3 8/16/22
f 9/18/23 8/16/22 10/20/2
f 5/10/3 10/20/2 8/16/22
s 4
f 16/28/31 12/23/32 4/8/33
s 3
f 14/26/34 16/28/35 4/8/36
s 4
f 16/28/31 15/27/21 12/23/32
f 12/23/32 15/27/21 11/21/10
f 10/19/11 11/21/10 9/17/20
f 15/27/21 9/17/20 11/21/10
s 2
f 12/24/28 11/22/6 14/26/29
f 14/26/29 11/22/6 13/25/16
f 6/11/17 13/25/16 5/9/5
f 11/22/6 5/9/5 13/25/16
s 3
f 14/26/34 13/25/9 16/28/35
f 16/28/35 13/25/9 15/27/25
f 8/15/26 15/27/25 7/13/8
f 13/25/9 7/13/8 15/27/25
s 13
f 17/29/37 18/30/38 23/32/39
f 23/32/39 18/30/38 24/31/40
s 14
f 18/30/41 19/33/42 24/31/43
f 24/31/43 19/33/42 25/34/44
s 15
f 19/33/45 20/35/46 25/34/47
f 25/34/47 20/35/46 26/36/48
s 16
f 20/35/49 21/37/50 26/36/51
f 26/36/51 21/37/50 27/38/52
s 17
f 21/37/53 22/39/54 27/38/55
f 27/38/55 22/39/54 28/40/56
s 18
f 22/39/57 17/41/58 28/40/59
f 28/40/59 17/41/58 23/42/60
s 19
f 23/32/61 24/31/62 29/44/63
f 29/44/63 24/31/62 30/43/64
s 20
f 24/31/65 25/34/66 30/43/67
f 30/43/67 25/34/66 31/45/68
s 21
f 25/34/69 26/36/70 31/45/71
f 31/45/71 26/36/70 32/46/72
s 22
f 26/36/73 27/38/74 32/46/75
f 32/46/75 27/38/74 33/47/76
s 23
f 27/38/77 28/40/78 33/47/79
f 33/47/79 28/40/78 34/48/80
s 24
f 28/40/81 23/42/82 34/48/83
f 34/48/83 23/42/82 29/49/84
s 25
f 29/44/85 30/43/86 35/51/87
f 35/51/87 30/43/86 36/50/88
s 26
f 30/43/89 31/45/90 36/50/91
f 36/50/91 31/45/90 37/52/92
s 27
f 31/45/93 32/46/94 37/52/95
f 37/52/95 32/46/94 38/53/96
s 28
f 32/46/97 33/47/98 38/53/99
f 38/53/99 33/47/98 39/54/100
s 29
f 33/47/101 34/48/102 39/54/103
f 39/54/103 34/48/102 40/55/104
s 30
f 34/48/105 29/49/106 40/55/107
f 40/55/107 29/49/106 35/56/108
s off
f 18/30/109 17/29/110 41/57/111
f 19/33/112 18/30/113 41/58/114
f 20/35/115 19/33/116 41/59/117
f 21/37/118 20/35/119 41/60/120
f 22/39/121 21/37/122 41/61/123
f 17/41/124 22/39/125 41/62/126
f 35/51/127 36/50/128 42/63/129
f 36/50/130 37/52/131 42/64/132
f 37/52/133 38/53/134 42/65/135
f 38/53/136 39/54/137 42/66/138
f 39/54/139 40/55/140 42/67/141
f 40/55/142 35/56/143 42/68/144
