# This file uses centimeters as units for non-parametric coordinates.

mtllib Sphere.mtl
g default
v 5.857948 -0.923880 0.538751
v 5.717876 -0.923880 0.398679
v 5.526534 -0.923880 0.347409
v 5.335193 -0.923880 0.398679
v 5.195121 -0.923880 0.538751
v 5.143851 -0.923880 0.730093
v 5.195121 -0.923880 0.921434
v 5.335193 -0.923880 1.061506
v 5.526534 -0.923880 1.112776
v 5.717876 -0.923880 1.061506
v 5.857948 -0.923880 0.921434
v 5.909218 -0.923880 0.730093
v 6.138907 -0.707107 0.376539
v 5.880088 -0.707107 0.117720
v 5.526534 -0.707107 0.022986
v 5.172981 -0.707107 0.117720
v 4.914162 -0.707107 0.376539
v 4.819428 -0.707107 0.730093
v 4.914162 -0.707107 1.083646
v 5.172981 -0.707107 1.342465
v 5.526534 -0.707107 1.437199
v 5.880088 -0.707107 1.342465
v 6.138907 -0.707107 1.083646
v 6.233641 -0.707107 0.730093
v 6.326638 -0.382683 0.268153
v 5.988474 -0.382683 -0.070011
v 5.526534 -0.382683 -0.193787
v 5.064595 -0.382683 -0.070011
v 4.726431 -0.382683 0.268153
v 4.602655 -0.382683 0.730093
v 4.726431 -0.382683 1.192032
v 5.064595 -0.382683 1.530196
v 5.526534 -0.382683 1.653972
v 5.988474 -0.382683 1.530196
v 6.326638 -0.382683 1.192032
v 6.450414 -0.382683 0.730093
v 6.392560 0.000000 0.230093
v 6.026534 0.000000 -0.135933
v 5.526534 0.000000 -0.269907
v 5.026534 0.000000 -0.135933
v 4.660509 0.000000 0.230093
v 4.526534 0.000000 0.730093
v 4.660509 0.000000 1.230093
v 5.026534 0.000000 1.596118
v 5.526534 0.000000 1.730093
v 6.026534 0.000000 1.596118
v 6.392560 0.000000 1.230093
v 6.526534 0.000000 0.730093
v 6.326638 0.382683 0.268153
v 5.988474 0.382683 -0.070011
v 5.526534 0.382683 -0.193787
v 5.064595 0.382683 -0.070011
v 4.726431 0.382683 0.268153
v 4.602655 0.382683 0.730093
v 4.726431 0.382683 1.192032
v 5.064595 0.382683 1.530196
v 5.526534 0.382683 1.653972
v 5.988474 0.382683 1.530196
v 6.326638 0.382683 1.192032
v 6.450414 0.382683 0.730093
v 6.138907 0.707107 0.376539
v 5.880088 0.707107 0.117720
v 5.526534 0.707107 0.022986
v 5.172981 0.707107 0.117720
v 4.914162 0.707107 0.376539
v 4.819428 0.707107 0.730093
v 4.914162 0.707107 1.083646
v 5.172981 0.707107 1.342465
v 5.526534 0.707107 1.437199
v 5.880088 0.707107 1.342465
v 6.138907 0.707107 1.083646
v 6.233641 0.707107 0.730093
v 5.857948 0.923880 0.538751
v 5.717876 0.923880 0.398679
v 5.526534 0.923880 0.347409
v 5.335193 0.923880 0.398679
v 5.195121 0.923880 0.538751
v 5.143851 0.923880 0.730093
v 5.195121 0.923880 0.921434
v 5.335193 0.923880 1.061506
v 5.526534 0.923880 1.112776
v 5.717876 0.923880 1.061506
v 5.857948 0.923880 0.921434
v 5.909218 0.923880 0.730093
v 5.526534 -1.000000 0.730093
v 5.526534 1.000000 0.730093
vt 0.000000 0.125000
vt 0.083333 0.125000
vt 0.166667 0.125000
vt 0.250000 0.125000
vt 0.333333 0.125000
vt 0.416667 0.125000
vt 0.500000 0.125000
vt 0.583333 0.125000
vt 0.666667 0.125000
vt 0.750000 0.125000
vt 0.833333 0.125000
vt 0.916667 0.125000
vt 1.000000 0.125000
vt 0.000000 0.250000
vt 0.083333 0.250000
vt 0.166667 0.250000
vt 0.250000 0.250000
vt 0.333333 0.250000
vt 0.416667 0.250000
vt 0.500000 0.250000
vt 0.583333 0.250000
vt 0.666667 0.250000
vt 0.750000 0.250000
vt 0.833333 0.250000
vt 0.916667 0.250000
vt 1.000000 0.250000
vt 0.000000 0.375000
vt 0.083333 0.375000
vt 0.166667 0.375000
vt 0.250000 0.375000
vt 0.333333 0.375000
vt 0.416667 0.375000
vt 0.500000 0.375000
vt 0.583333 0.375000
vt 0.666667 0.375000
vt 0.750000 0.375000
vt 0.833333 0.375000
vt 0.916667 0.375000
vt 1.000000 0.375000
vt 0.000000 0.500000
vt 0.083333 0.500000
vt 0.166667 0.500000
vt 0.250000 0.500000
vt 0.333333 0.500000
vt 0.416667 0.500000
vt 0.500000 0.500000
vt 0.583333 0.500000
vt 0.666667 0.500000
vt 0.750000 0.500000
vt 0.833333 0.500000
vt 0.916667 0.500000
vt 1.000000 0.500000
vt 0.000000 0.625000
vt 0.083333 0.625000
vt 0.166667 0.625000
vt 0.250000 0.625000
vt 0.333333 0.625000
vt 0.416667 0.625000
vt 0.500000 0.625000
vt 0.583333 0.625000
vt 0.666667 0.625000
vt 0.750000 0.625000
vt 0.833333 0.625000
vt 0.916667 0.625000
vt 1.000000 0.625000
vt 0.000000 0.750000
vt 0.083333 0.750000
vt 0.166667 0.750000
vt 0.250000 0.750000
vt 0.333333 0.750000
vt 0.416667 0.750000
vt 0.500000 0.750000
vt 0.583333 0.750000
vt 0.666667 0.750000
vt 0.750000 0.750000
vt 0.833333 0.750000
vt 0.916667 0.750000
vt 1.000000 0.750000
vt 0.000000 0.875000
vt 0.083333 0.875000
vt 0.166667 0.875000
vt 0.250000 0.875000
vt 0.333333 0.875000
vt 0.416667 0.875000
vt 0.500000 0.875000
vt 0.583333 0.875000
vt 0.666667 0.875000
vt 0.750000 0.875000
vt 0.833333 0.875000
vt 0.916667 0.875000
vt 1.000000 0.875000
vt 0.041667 0.000000
vt 0.125000 0.000000
vt 0.208333 0.000000
vt 0.291667 0.000000
vt 0.375000 0.000000
vt 0.458333 0.000000
vt 0.541667 0.000000
vt 0.625000 0.000000
vt 0.708333 0.000000
vt 0.791667 0.000000
vt 0.875000 0.000000
vt 0.958333 0.000000
vt 0.041667 1.000000
vt 0.125000 1.000000
vt 0.208333 1.000000
vt 0.291667 1.000000
vt 0.375000 1.000000
vt 0.458333 1.000000
vt 0.541667 1.000000
vt 0.625000 1.000000
vt 0.708333 1.000000
vt 0.791667 1.000000
vt 0.875000 1.000000
vt 0.958333 1.000000
vn 0.402273 -0.822407 -0.402273
vn 0.402273 -0.822407 -0.402273
vn 0.402273 -0.822407 -0.402273
vn 0.402273 -0.822407 -0.402273
vn 0.147242 -0.822407 -0.549515
vn 0.147242 -0.822407 -0.549515
vn 0.147242 -0.822407 -0.549515
vn 0.147242 -0.822407 -0.549515
vn -0.147242 -0.822407 -0.549515
vn -0.147242 -0.822407 -0.549515
vn -0.147242 -0.822407 -0.549515
vn -0.147242 -0.822407 -0.549515
vn -0.402273 -0.822407 -0.402273
vn -0.402273 -0.822407 -0.402273
vn -0.402273 -0.822407 -0.402273
vn -0.402273 -0.822407 -0.402273
vn -0.549515 -0.822407 -0.147242
vn -0.549515 -0.822407 -0.147242
vn -0.549515 -0.822407 -0.147242
vn -0.549515 -0.822407 -0.147242
vn -0.549515 -0.822407 0.147241
vn -0.549515 -0.822407 0.147242
vn -0.549515 -0.822407 0.147242
vn -0.549515 -0.822407 0.147242
vn -0.402273 -0.822407 0.402273
vn -0.402273 -0.822407 0.402273
vn -0.402273 -0.822407 0.402273
vn -0.402273 -0.822407 0.402273
vn -0.147242 -0.822407 0.549515
vn -0.147242 -0.822407 0.549515
vn -0.147242 -0.822407 0.549515
vn -0.147242 -0.822407 0.549515
vn 0.147242 -0.822407 0.549515
vn 0.147242 -0.822407 0.549515
vn 0.147242 -0.822407 0.549515
vn 0.147242 -0.822407 0.549515
vn 0.402273 -0.822407 0.402273
vn 0.402273 -0.822407 0.402273
vn 0.402273 -0.822407 0.402273
vn 0.402273 -0.822407 0.402273
vn 0.549515 -0.822407 0.147242
vn 0.549515 -0.822407 0.147242
vn 0.549515 -0.822407 0.147242
vn 0.549515 -0.822407 0.147242
vn 0.549515 -0.822407 -0.147241
vn 0.549515 -0.822407 -0.147242
vn 0.549515 -0.822407 -0.147242
vn 0.549515 -0.822407 -0.147242
vn 0.594112 -0.542275 -0.594112
vn 0.594112 -0.542275 -0.594112
vn 0.594112 -0.542275 -0.594112
vn 0.594112 -0.542275 -0.594112
vn 0.217460 -0.542275 -0.811572
vn 0.217460 -0.542275 -0.811572
vn 0.217460 -0.542275 -0.811572
vn 0.217460 -0.542275 -0.811572
vn -0.217460 -0.542275 -0.811572
vn -0.217460 -0.542275 -0.811572
vn -0.217460 -0.542275 -0.811572
vn -0.217460 -0.542275 -0.811572
vn -0.594112 -0.542275 -0.594112
vn -0.594112 -0.542275 -0.594112
vn -0.594112 -0.542275 -0.594112
vn -0.594112 -0.542275 -0.594112
vn -0.811572 -0.542275 -0.217460
vn -0.811572 -0.542275 -0.217460
vn -0.811572 -0.542275 -0.217460
vn -0.811572 -0.542275 -0.217460
vn -0.811572 -0.542275 0.217460
vn -0.811572 -0.542275 0.217460
vn -0.811572 -0.542275 0.217460
vn -0.811572 -0.542275 0.217460
vn -0.594112 -0.542275 0.594112
vn -0.594112 -0.542275 0.594112
vn -0.594112 -0.542275 0.594112
vn -0.594112 -0.542275 0.594112
vn -0.217460 -0.542275 0.811572
vn -0.217460 -0.542275 0.811572
vn -0.217460 -0.542275 0.811572
vn -0.217460 -0.542275 0.811572
vn 0.217460 -0.542275 0.811572
vn 0.217460 -0.542275 0.811572
vn 0.217460 -0.542275 0.811572
vn 0.217460 -0.542275 0.811572
vn 0.594112 -0.542275 0.594112
vn 0.594112 -0.542275 0.594112
vn 0.594112 -0.542275 0.594112
vn 0.594112 -0.542275 0.594112
vn 0.811572 -0.542275 0.217460
vn 0.811572 -0.542275 0.217460
vn 0.811572 -0.542275 0.217460
vn 0.811572 -0.542275 0.217460
vn 0.811572 -0.542275 -0.217460
vn 0.811572 -0.542275 -0.217460
vn 0.811572 -0.542275 -0.217460
vn 0.811572 -0.542275 -0.217460
vn 0.694406 -0.188683 -0.694406
vn 0.694406 -0.188684 -0.694406
vn 0.694406 -0.188684 -0.694406
vn 0.694406 -0.188684 -0.694406
vn 0.254170 -0.188683 -0.948576
vn 0.254170 -0.188684 -0.948576
vn 0.254170 -0.188684 -0.948576
vn 0.254170 -0.188684 -0.948576
vn -0.254170 -0.188684 -0.948576
vn -0.254170 -0.188683 -0.948576
vn -0.254170 -0.188684 -0.948576
vn -0.254170 -0.188683 -0.948576
vn -0.694406 -0.188684 -0.694406
vn -0.694406 -0.188684 -0.694406
vn -0.694406 -0.188684 -0.694406
vn -0.694406 -0.188684 -0.694406
vn -0.948576 -0.188683 -0.254170
vn -0.948576 -0.188684 -0.254170
vn -0.948576 -0.188684 -0.254170
vn -0.948576 -0.188684 -0.254170
vn -0.948576 -0.188684 0.254170
vn -0.948576 -0.188684 0.254170
vn -0.948576 -0.188684 0.254170
vn -0.948576 -0.188684 0.254170
vn -0.694406 -0.188683 0.694406
vn -0.694406 -0.188684 0.694406
vn -0.694406 -0.188684 0.694406
vn -0.694406 -0.188684 0.694406
vn -0.254170 -0.188683 0.948576
vn -0.254170 -0.188684 0.948576
vn -0.254170 -0.188684 0.948576
vn -0.254170 -0.188684 0.948576
vn 0.254170 -0.188684 0.948576
vn 0.254170 -0.188683 0.948576
vn 0.254170 -0.188684 0.948576
vn 0.254170 -0.188683 0.948576
vn 0.694406 -0.188684 0.694406
vn 0.694406 -0.188684 0.694406
vn 0.694406 -0.188684 0.694406
vn 0.694406 -0.188684 0.694406
vn 0.948576 -0.188683 0.254170
vn 0.948576 -0.188684 0.254170
vn 0.948576 -0.188684 0.254170
vn 0.948576 -0.188684 0.254170
vn 0.948576 -0.188684 -0.254170
vn 0.948576 -0.188684 -0.254170
vn 0.948576 -0.188684 -0.254170
vn 0.948576 -0.188684 -0.254170
vn 0.694406 0.188684 -0.694406
vn 0.694406 0.188684 -0.694406
vn 0.694406 0.188684 -0.694406
vn 0.694406 0.188684 -0.694406
vn 0.254170 0.188683 -0.948576
vn 0.254170 0.188684 -0.948576
vn 0.254170 0.188684 -0.948576
vn 0.254170 0.188684 -0.948576
vn -0.254170 0.188684 -0.948576
vn -0.254170 0.188684 -0.948576
vn -0.254170 0.188684 -0.948576
vn -0.254170 0.188683 -0.948576
vn -0.694406 0.188684 -0.694406
vn -0.694406 0.188684 -0.694406
vn -0.694406 0.188684 -0.694406
vn -0.694406 0.188683 -0.694406
vn -0.948576 0.188684 -0.254170
vn -0.948576 0.188684 -0.254170
vn -0.948576 0.188684 -0.254170
vn -0.948576 0.188684 -0.254170
vn -0.948576 0.188684 0.254170
vn -0.948576 0.188684 0.254170
vn -0.948576 0.188684 0.254170
vn -0.948576 0.188683 0.254170
vn -0.694406 0.188684 0.694406
vn -0.694406 0.188684 0.694406
vn -0.694406 0.188684 0.694406
vn -0.694406 0.188684 0.694406
vn -0.254170 0.188683 0.948576
vn -0.254170 0.188684 0.948576
vn -0.254170 0.188684 0.948576
vn -0.254170 0.188684 0.948576
vn 0.254170 0.188684 0.948576
vn 0.254170 0.188684 0.948576
vn 0.254170 0.188684 0.948576
vn 0.254170 0.188683 0.948576
vn 0.694406 0.188684 0.694406
vn 0.694406 0.188684 0.694406
vn 0.694406 0.188684 0.694406
vn 0.694406 0.188683 0.694406
vn 0.948576 0.188684 0.254170
vn 0.948576 0.188684 0.254170
vn 0.948576 0.188684 0.254170
vn 0.948576 0.188684 0.254170
vn 0.948576 0.188684 -0.254170
vn 0.948576 0.188684 -0.254170
vn 0.948576 0.188684 -0.254170
vn 0.948576 0.188683 -0.254170
vn 0.594112 0.542275 -0.594112
vn 0.594112 0.542275 -0.594112
vn 0.594112 0.542275 -0.594112
vn 0.594112 0.542275 -0.594112
vn 0.217460 0.542275 -0.811572
vn 0.217460 0.542275 -0.811572
vn 0.217460 0.542275 -0.811572
vn 0.217460 0.542275 -0.811572
vn -0.217460 0.542275 -0.811572
vn -0.217460 0.542275 -0.811572
vn -0.217460 0.542275 -0.811572
vn -0.217460 0.542275 -0.811572
vn -0.594112 0.542275 -0.594112
vn -0.594112 0.542275 -0.594112
vn -0.594112 0.542275 -0.594112
vn -0.594112 0.542275 -0.594112
vn -0.811572 0.542275 -0.217460
vn -0.811572 0.542275 -0.217460
vn -0.811572 0.542275 -0.217460
vn -0.811572 0.542275 -0.217460
vn -0.811572 0.542275 0.217460
vn -0.811572 0.542275 0.217460
vn -0.811572 0.542275 0.217460
vn -0.811572 0.542275 0.217460
vn -0.594112 0.542275 0.594112
vn -0.594112 0.542275 0.594112
vn -0.594112 0.542275 0.594112
vn -0.594112 0.542275 0.594112
vn -0.217460 0.542275 0.811572
vn -0.217460 0.542275 0.811572
vn -0.217460 0.542275 0.811572
vn -0.217460 0.542275 0.811572
vn 0.217460 0.542275 0.811572
vn 0.217460 0.542275 0.811572
vn 0.217460 0.542275 0.811572
vn 0.217460 0.542275 0.811572
vn 0.594112 0.542275 0.594112
vn 0.594112 0.542275 0.594112
vn 0.594112 0.542275 0.594112
vn 0.594112 0.542275 0.594112
vn 0.811572 0.542275 0.217460
vn 0.811572 0.542275 0.217460
vn 0.811572 0.542275 0.217460
vn 0.811572 0.542275 0.217460
vn 0.811572 0.542275 -0.217460
vn 0.811572 0.542275 -0.217460
vn 0.811572 0.542275 -0.217460
vn 0.811572 0.542275 -0.217460
vn 0.402273 0.822407 -0.402273
vn 0.402273 0.822407 -0.402273
vn 0.402273 0.822407 -0.402273
vn 0.402273 0.822407 -0.402273
vn 0.147242 0.822407 -0.549515
vn 0.147242 0.822407 -0.549515
vn 0.147242 0.822407 -0.549515
vn 0.147242 0.822407 -0.549515
vn -0.147242 0.822407 -0.549515
vn -0.147242 0.822407 -0.549515
vn -0.147242 0.822407 -0.549515
vn -0.147242 0.822407 -0.549515
vn -0.402273 0.822407 -0.402273
vn -0.402273 0.822407 -0.402273
vn -0.402273 0.822407 -0.402273
vn -0.402273 0.822407 -0.402273
vn -0.549515 0.822407 -0.147242
vn -0.549515 0.822407 -0.147242
vn -0.549515 0.822407 -0.147242
vn -0.549515 0.822407 -0.147241
vn -0.549515 0.822407 0.147242
vn -0.549515 0.822407 0.147242
vn -0.549515 0.822407 0.147242
vn -0.549515 0.822407 0.147242
vn -0.402273 0.822407 0.402273
vn -0.402273 0.822407 0.402273
vn -0.402273 0.822407 0.402273
vn -0.402273 0.822407 0.402273
vn -0.147242 0.822407 0.549515
vn -0.147242 0.822407 0.549515
vn -0.147242 0.822407 0.549515
vn -0.147242 0.822407 0.549515
vn 0.147242 0.822407 0.549515
vn 0.147242 0.822407 0.549515
vn 0.147242 0.822407 0.549515
vn 0.147242 0.822407 0.549515
vn 0.402273 0.822407 0.402273
vn 0.402273 0.822407 0.402273
vn 0.402273 0.822407 0.402273
vn 0.402273 0.822407 0.402273
vn 0.549515 0.822407 0.147242
vn 0.549515 0.822407 0.147242
vn 0.549515 0.822407 0.147242
vn 0.549515 0.822407 0.147241
vn 0.549515 0.822407 -0.147242
vn 0.549515 0.822407 -0.147242
vn 0.549515 0.822407 -0.147242
vn 0.549515 0.822407 -0.147242
vn 0.142621 -0.979448 -0.142621
vn 0.142621 -0.979448 -0.142621
vn 0.142621 -0.979448 -0.142621
vn 0.052203 -0.979448 -0.194824
vn 0.052203 -0.979448 -0.194824
vn 0.052203 -0.979448 -0.194824
vn -0.052203 -0.979448 -0.194824
vn -0.052203 -0.979448 -0.194824
vn -0.052203 -0.979448 -0.194824
vn -0.142621 -0.979448 -0.142621
vn -0.142621 -0.979448 -0.142621
vn -0.142621 -0.979448 -0.142621
vn -0.194824 -0.979448 -0.052204
vn -0.194824 -0.979448 -0.052204
vn -0.194824 -0.979448 -0.052204
vn -0.194824 -0.979448 0.052203
vn -0.194824 -0.979448 0.052203
vn -0.194824 -0.979448 0.052203
vn -0.142621 -0.979448 0.142621
vn -0.142621 -0.979448 0.142621
vn -0.142621 -0.979448 0.142621
vn -0.052203 -0.979448 0.194824
vn -0.052203 -0.979448 0.194824
vn -0.052203 -0.979448 0.194824
vn 0.052203 -0.979448 0.194824
vn 0.052203 -0.979448 0.194824
vn 0.052203 -0.979448 0.194824
vn 0.142621 -0.979448 0.142621
vn 0.142621 -0.979448 0.142621
vn 0.142621 -0.979448 0.142621
vn 0.194824 -0.979448 0.052204
vn 0.194824 -0.979448 0.052204
vn 0.194824 -0.979448 0.052204
vn 0.194824 -0.979448 -0.052203
vn 0.194824 -0.979448 -0.052203
vn 0.194824 -0.979448 -0.052203
vn 0.142621 0.979448 -0.142621
vn 0.142621 0.979448 -0.142621
vn 0.142621 0.979448 -0.142621
vn 0.052203 0.979448 -0.194824
vn 0.052203 0.979448 -0.194824
vn 0.052203 0.979448 -0.194824
vn -0.052203 0.979448 -0.194824
vn -0.052203 0.979448 -0.194824
vn -0.052203 0.979448 -0.194824
vn -0.142621 0.979448 -0.142621
vn -0.142621 0.979448 -0.142621
vn -0.142621 0.979448 -0.142621
vn -0.194824 0.979448 -0.052203
vn -0.194824 0.979448 -0.052203
vn -0.194824 0.979448 -0.052203
vn -0.194824 0.979448 0.052204
vn -0.194824 0.979448 0.052204
vn -0.194824 0.979448 0.052204
vn -0.142621 0.979448 0.142621
vn -0.142621 0.979448 0.142621
vn -0.142621 0.979448 0.142621
vn -0.052203 0.979448 0.194824
vn -0.052203 0.979448 0.194824
vn -0.052203 0.979448 0.194824
vn 0.052203 0.979448 0.194824
vn 0.052203 0.979448 0.194824
vn 0.052203 0.979448 0.194824
vn 0.142621 0.979448 0.142621
vn 0.142621 0.979448 0.142621
vn 0.142621 0.979448 0.142621
vn 0.194824 0.979448 0.052203
vn 0.194824 0.979448 0.052203
vn 0.194824 0.979448 0.052203
vn 0.194824 0.979448 -0.052204
vn 0.194824 0.979448 -0.052204
vn 0.194824 0.979448 -0.052204
s 1
g pSphere1
usemtl initialShadingGroup
f 1/1/1 2/2/2 13/14/3
f 13/14/3 2/2/2 14/15/4
s 2
f 2/2/5 3/3/6 14/15/7
f 14/15/7 3/3/6 15/16/8
s 3
f 3/3/9 4/4/10 15/16/11
f 15/16/11 4/4/10 16/17/12
s 4
f 4/4/13 5/5/14 16/17/15
f 16/17/15 5/5/14 17/18/16
s 5
f 5/5/17 6/6/18 17/18/19
f 17/18/19 6/6/18 18/19/20
s 6
f 6/6/21 7/7/22 18/19/23
f 18/19/23 7/7/22 19/20/24
s 7
f 7/7/25 8/8/26 19/20/27
f 19/20/27 8/8/26 20/21/28
s 8
f 8/8/29 9/9/30 20/21/31
f 20/21/31 9/9/30 21/22/32
s 9
f 9/9/33 10/10/34 21/22/35
f 21/22/35 10/10/34 22/23/36
s 10
f 10/10/37 11/11/38 22/23/39
f 22/23/39 11/11/38 23/24/40
s 11
f 11/11/41 12/12/42 23/24/43
f 23/24/43 12/12/42 24/25/44
s 12
f 12/12/45 1/13/46 24/25/47
f 24/25/47 1/13/46 13/26/48
s 13
f 13/14/49 14/15/50 25/27/51
f 25/27/51 14/15/50 26/28/52
s 14
f 14/15/53 15/16/54 26/28/55
f 26/28/55 15/16/54 27/29/56
s 15
f 15/16/57 16/17/58 27/29/59
f 27/29/59 16/17/58 28/30/60
s 16
f 16/17/61 17/18/62 28/30/63
f 28/30/63 17/18/62 29/31/64
s 17
f 17/18/65 18/19/66 29/31/67
f 29/31/67 18/19/66 30/32/68
s 18
f 18/19/69 19/20/70 30/32/71
f 30/32/71 19/20/70 31/33/72
s 19
f 19/20/73 20/21/74 31/33/75
f 31/33/75 20/21/74 32/34/76
s 20
f 20/21/77 21/22/78 32/34/79
f 32/34/79 21/22/78 33/35/80
s 21
f 21/22/81 22/23/82 33/35/83
f 33/35/83 22/23/82 34/36/84
s 22
f 22/23/85 23/24/86 34/36/87
f 34/36/87 23/24/86 35/37/88
s 23
f 23/24/89 24/25/90 35/37/91
f 35/37/91 24/25/90 36/38/92
s 24
f 24/25/93 13/26/94 36/38/95
f 36/38/95 13/26/94 25/39/96
s 25
f 25/27/97 26/28/98 37/40/99
f 37/40/99 26/28/98 38/41/100
s 26
f 26/28/101 27/29/102 38/41/103
f 38/41/103 27/29/102 39/42/104
s 27
f 27/29/105 28/30/106 39/42/107
f 39/42/107 28/30/106 40/43/108
s 28
f 28/30/109 29/31/110 40/43/111
f 40/43/111 29/31/110 41/44/112
s 29
f 29/31/113 30/32/114 41/44/115
f 41/44/115 30/32/114 42/45/116
s 30
f 30/32/117 31/33/118 42/45/119
f 42/45/119 31/33/118 43/46/120
s 31
f 31/33/121 32/34/122 43/46/123
f 43/46/123 32/34/122 44/47/124
s 32
f 32/34/125 33/35/126 44/47/127
f 44/47/127 33/35/126 45/48/128
s 33
f 33/35/129 34/36/130 45/48/131
f 45/48/131 34/36/130 46/49/132
s 34
f 34/36/133 35/37/134 46/49/135
f 46/49/135 35/37/134 47/50/136
s 35
f 35/37/137 36/38/138 47/50/139
f 47/50/139 36/38/138 48/51/140
s 36
f 36/38/141 25/39/142 48/51/143
f 48/51/143 25/39/142 37/52/144
s 37
f 37/40/145 38/41/146 49/53/147
f 49/53/147 38/41/146 50/54/148
s 38
f 38/41/149 39/42/150 50/54/151
f 50/54/151 39/42/150 51/55/152
s 39
f 39/42/153 40/43/154 51/55/155
f 51/55/155 40/43/154 52/56/156
s 40
f 40/43/157 41/44/158 52/56/159
f 52/56/159 41/44/158 53/57/160
s 41
f 41/44/161 42/45/162 53/57/163
f 53/57/163 42/45/162 54/58/164
s 42
f 42/45/165 43/46/166 54/58/167
f 54/58/167 43/46/166 55/59/168
s 43
f 43/46/169 44/47/170 55/59/171
f 55/59/171 44/47/170 56/60/172
s 44
f 44/47/173 45/48/174 56/60/175
f 56/60/175 45/48/174 57/61/176
s 45
f 45/48/177 46/49/178 57/61/179
f 57/61/179 46/49/178 58/62/180
s 46
f 46/49/181 47/50/182 58/62/183
f 58/62/183 47/50/182 59/63/184
s 47
f 47/50/185 48/51/186 59/63/187
f 59/63/187 48/51/186 60/64/188
s 48
f 48/51/189 37/52/190 60/64/191
f 60/64/191 37/52/190 49/65/192
s 49
f 49/53/193 50/54/194 61/66/195
f 61/66/195 50/54/194 62/67/196
s 50
f 50/54/197 51/55/198 62/67/199
f 62/67/199 51/55/198 63/68/200
s 51
f 51/55/201 52/56/202 63/68/203
f 63/68/203 52/56/202 64/69/204
s 52
f 52/56/205 53/57/206 64/69/207
f 64/69/207 53/57/206 65/70/208
s 53
f 53/57/209 54/58/210 65/70/211
f 65/70/211 54/58/210 66/71/212
s 54
f 54/58/213 55/59/214 66/71/215
f 66/71/215 55/59/214 67/72/216
s 55
f 55/59/217 56/60/218 67/72/219
f 67/72/219 56/60/218 68/73/220
s 56
f 56/60/221 57/61/222 68/73/223
f 68/73/223 57/61/222 69/74/224
s 57
f 57/61/225 58/62/226 69/74/227
f 69/74/227 58/62/226 70/75/228
s 58
f 58/62/229 59/63/230 70/75/231
f 70/75/231 59/63/230 71/76/232
s 59
f 59/63/233 60/64/234 71/76/235
f 71/76/235 60/64/234 72/77/236
s 60
f 60/64/237 49/65/238 72/77/239
f 72/77/239 49/65/238 61/78/240
s 61
f 61/66/241 62/67/242 73/79/243
f 73/79/243 62/67/242 74/80/244
s 62
f 62/67/245 63/68/246 74/80/247
f 74/80/247 63/68/246 75/81/248
s 63
f 63/68/249 64/69/250 75/81/251
f 75/81/251 64/69/250 76/82/252
s 64
f 64/69/253 65/70/254 76/82/255
f 76/82/255 65/70/254 77/83/256
s 65
f 65/70/257 66/71/258 77/83/259
f 77/83/259 66/71/258 78/84/260
s 66
f 66/71/261 67/72/262 78/84/263
f 78/84/263 67/72/262 79/85/264
s 67
f 67/72/265 68/73/266 79/85/267
f 79/85/267 68/73/266 80/86/268
s 68
f 68/73/269 69/74/270 80/86/271
f 80/86/271 69/74/270 81/87/272
s 69
f 69/74/273 70/75/274 81/87/275
f 81/87/275 70/75/274 82/88/276
s 70
f 70/75/277 71/76/278 82/88/279
f 82/88/279 71/76/278 83/89/280
s 71
f 71/76/281 72/77/282 83/89/283
f 83/89/283 72/77/282 84/90/284
s 72
f 72/77/285 61/78/286 84/90/287
f 84/90/287 61/78/286 73/91/288
s off
f 2/2/289 1/1/290 85/92/291
f 3/3/292 2/2/293 85/93/294
f 4/4/295 3/3/296 85/94/297
f 5/5/298 4/4/299 85/95/300
f 6/6/301 5/5/302 85/96/303
f 7/7/304 6/6/305 85/97/306
f 8/8/307 7/7/308 85/98/309
f 9/9/310 8/8/311 85/99/312
f 10/10/313 9/9/314 85/100/315
f 11/11/316 10/10/317 85/101/318
f 12/12/319 11/11/320 85/102/321
f 1/13/322 12/12/323 85/103/324
f 73/79/325 74/80/326 86/104/327
f 74/80/328 75/81/329 86/105/330
f 75/81/331 76/82/332 86/106/333
f 76/82/334 77/83/335 86/107/336
f 77/83/337 78/84/338 86/108/339
f 78/84/340 79/85/341 86/109/342
f 79/85/343 80/86/344 86/110/345
f 80/86/346 81/87/347 86/111/348
f 81/87/349 82/88/350 86/112/351
f 82/88/352 83/89/353 86/113/354
f 83/89/355 84/90/356 86/114/357
f 84/90/358 73/91/359 86/115/360
